STARTFONT 2.1
FONT -Monotype-Nimrod-Regular-R-Normal--36-360-75-75-P-213-iso8859-5
SIZE 36 75 75
FONTBOUNDINGBOX 44 47 -2 -9

STARTPROPERTIES 24
FOUNDRY "Monotype"
FAMILY_NAME "Nimrod"
WEIGHT_NAME "Regular"
SLANT "R"
SETWIDTH_NAME "Normal"
ADD_STYLE_NAME ""
PIXEL_SIZE 36
POINT_SIZE 360
RESOLUTION_X 75
RESOLUTION_Y 75
SPACING "P"
AVERAGE_WIDTH 213
CHARSET_REGISTRY "iso8859"
CHARSET_ENCODING "5"
FACE_NAME "Nimrod ISO Latin Cyrillic"
_DEC_DEVICE_FONTNAMES "PS=nimrod-latcyrillic"
COPYRIGHT "Copyright (c) 1993 Monotype Typography Ltd."
CAP_HEIGHT 34
X_HEIGHT 25
WEIGHT 10
QUAD_WIDTH 26
DEFAULT_CHAR 160
FONT_DESCENT 9
FONT_ASCENT 38
ENDPROPERTIES

CHARS 191

STARTCHAR space
ENCODING 32
SWIDTH 250 0
DWIDTH 10 0
BBX 0 0 0 0
BITMAP
ENDCHAR

STARTCHAR exclam
ENCODING 33
SWIDTH 281 0
DWIDTH 11 0
BBX 5 29 3 0
BITMAP
70
F8
F8
F8
F8
F8
F8
70
70
70
70
70
70
70
20
20
20
20
20
20
00
00
00
00
70
F8
F8
F8
70
ENDCHAR

STARTCHAR quotedbl
ENCODING 34
SWIDTH 406 0
DWIDTH 15 0
BBX 11 11 2 15
BITMAP
60C0
F1E0
F1E0
F1E0
F1E0
61E0
60C0
60C0
60C0
60C0
60C0
ENDCHAR

STARTCHAR numbersign
ENCODING 35
SWIDTH 667 0
DWIDTH 25 0
BBX 22 27 2 -1
BITMAP
018020
018060
018060
018060
018060
0300C0
0300C0
0300C0
FFFFFC
FFFFFC
060180
060180
060180
060180
0C0100
0C0300
0C0300
FFFFFC
FFFFFC
180200
180600
180600
180600
180600
300C00
300C00
300C00
ENDCHAR

STARTCHAR dollar
ENCODING 36
SWIDTH 500 0
DWIDTH 19 0
BBX 18 34 0 -5
BITMAP
00C000
00C000
03F000
0FFE00
1CCF00
38C300
30C380
70C780
70C780
70C780
78C700
7CC000
3FC000
3FC000
0FF000
07FC00
01FE00
00FF00
00DF80
00C7C0
70C3C0
78C3C0
F8C1C0
F8C1C0
E0C1C0
70C380
70C780
3CCF00
1FFC00
01E000
00C000
00C000
00C000
00C000
ENDCHAR

STARTCHAR percent
ENCODING 37
SWIDTH 1000 0
DWIDTH 38 0
BBX 28 29 5 -1
BITMAP
1F000600
31800C00
71C00800
E0E01800
E0E01000
E0E03000
E0E02000
E0E06000
E0E0C000
E0E08000
60E18000
71C10000
31830000
1F020F80
00061CC0
000438E0
000C3070
00087070
00187070
00307070
00207070
00607070
00407070
00C07070
00803060
018038E0
01001DC0
03000F80
06000000
ENDCHAR

STARTCHAR ampersand
ENCODING 38
SWIDTH 781 0
DWIDTH 30 0
BBX 28 29 1 0
BITMAP
007C0000
01FF0000
03C38000
0381C000
0701C000
0701C000
0701C000
07838000
07838000
07870000
03DE0000
03F80000
01E00000
07F07FF0
1EF07FF0
38F80F80
38780700
707C0600
703E0E00
F01E0C00
F01F1800
F00F9800
F007F030
F803E030
7801F060
7C03F8E0
3F0F7FE0
1FFE3FC0
07F00F00
ENDCHAR

STARTCHAR quoteright
ENCODING 39
SWIDTH 281 0
DWIDTH 11 0
BBX 6 11 2 18
BITMAP
38
7C
7C
7C
3C
0C
0C
18
30
E0
40
ENDCHAR

STARTCHAR parenleft
ENCODING 40
SWIDTH 354 0
DWIDTH 13 0
BBX 11 36 1 -7
BITMAP
0060
00E0
0180
0380
0700
0E00
0E00
1C00
3C00
3800
3800
7800
7800
7000
F000
F000
F000
F000
F000
F000
F000
F000
7000
7800
7800
3800
3C00
1C00
0C00
0E00
0700
0300
0180
00C0
0060
0020
ENDCHAR

STARTCHAR parenright
ENCODING 41
SWIDTH 354 0
DWIDTH 13 0
BBX 11 36 1 -7
BITMAP
C000
6000
3000
3800
1C00
0E00
0E00
0700
0780
0380
03C0
03C0
01C0
01E0
01E0
01E0
01E0
01E0
01E0
01E0
01E0
01E0
01C0
03C0
03C0
0380
0380
0700
0700
0E00
1C00
1800
3000
6000
C000
4000
ENDCHAR

STARTCHAR asterisk
ENCODING 42
SWIDTH 469 0
DWIDTH 18 0
BBX 16 15 1 14
BITMAP
01C0
03C0
03C0
01C0
718E
F99F
FFBF
7FFE
0180
0340
0E70
1E78
1E7C
1C38
0810
ENDCHAR

STARTCHAR plus
ENCODING 43
SWIDTH 667 0
DWIDTH 25 0
BBX 20 20 3 2
BITMAP
006000
006000
006000
006000
006000
006000
006000
006000
006000
FFFFF0
FFFFF0
006000
006000
006000
006000
006000
006000
006000
006000
006000
ENDCHAR

STARTCHAR comma
ENCODING 44
SWIDTH 281 0
DWIDTH 11 0
BBX 6 11 2 -6
BITMAP
38
7C
7C
7C
3C
0C
0C
18
30
E0
40
ENDCHAR

STARTCHAR minus
ENCODING 45
SWIDTH 667 0
DWIDTH 25 0
BBX 20 2 3 11
BITMAP
FFFFF0
FFFFF0
ENDCHAR

STARTCHAR period
ENCODING 46
SWIDTH 281 0
DWIDTH 11 0
BBX 5 5 3 0
BITMAP
70
F8
F8
F8
70
ENDCHAR

STARTCHAR slash
ENCODING 47
SWIDTH 510 0
DWIDTH 19 0
BBX 17 32 1 -1
BITMAP
000180
000180
000300
000300
000600
000600
000C00
000C00
001800
001800
003000
003000
006000
006000
00C000
00C000
018000
018000
030000
030000
060000
060000
0E0000
0C0000
1C0000
180000
380000
300000
300000
600000
600000
C00000
ENDCHAR

STARTCHAR zero
ENCODING 48
SWIDTH 500 0
DWIDTH 19 0
BBX 17 28 1 0
BITMAP
03E000
0FF800
1E3C00
3C1E00
380E00
780F00
700700
700700
F00780
F00780
F00780
F00780
F00780
F00780
F00780
F00780
F00780
F00780
F00780
700780
700700
780F00
380F00
380E00
1C1C00
1E3C00
0FF800
03E000
ENDCHAR

STARTCHAR one
ENCODING 49
SWIDTH 500 0
DWIDTH 19 0
BBX 14 28 3 0
BITMAP
0180
0780
7F80
FF80
0F80
0780
0780
0780
0780
0780
0780
0780
0780
0780
0780
0780
0780
0780
0780
0780
0780
0780
0780
0780
0780
0780
FFFC
FFFC
ENDCHAR

STARTCHAR two
ENCODING 50
SWIDTH 500 0
DWIDTH 19 0
BBX 18 27 0 0
BITMAP
03F000
0FFC00
1C1E00
380F00
700F80
780780
780780
7C0780
7C0780
380780
100F00
000F00
001E00
001E00
003C00
007800
00F000
01C000
038000
0700C0
060080
0C0180
180180
300380
7FFF80
FFFF80
FFFF80
ENDCHAR

STARTCHAR three
ENCODING 51
SWIDTH 500 0
DWIDTH 19 0
BBX 17 28 1 0
BITMAP
07E000
1FF800
383C00
301E00
700E00
780F00
780F00
780F00
300F00
000E00
001E00
001800
07E000
0FF000
003C00
000E00
000F00
000780
600780
F00780
F00780
F00780
F00780
E00F00
700F00
383E00
1FF800
07E000
ENDCHAR

STARTCHAR four
ENCODING 52
SWIDTH 500 0
DWIDTH 19 0
BBX 17 28 1 0
BITMAP
003800
003800
007800
00F800
00D800
01B800
033800
033800
063800
0E3800
0C3800
183800
383800
303800
603800
603800
C03800
803800
FFFF80
FFFF80
003800
003800
003800
003800
003800
003800
07FF80
07FF80
ENDCHAR

STARTCHAR five
ENCODING 53
SWIDTH 500 0
DWIDTH 19 0
BBX 17 28 1 0
BITMAP
000300
1FFF00
1FFF00
1FFE00
300000
300000
300000
300000
300000
300000
33E000
2FF800
783E00
601E00
000F00
000F80
000780
000780
700780
F00780
F00780
F00780
E00F00
E00F00
701E00
383C00
1FF800
07C000
ENDCHAR

STARTCHAR six
ENCODING 54
SWIDTH 500 0
DWIDTH 19 0
BBX 17 28 1 0
BITMAP
01F800
07FE00
0E0F00
1C0F00
180F00
380F00
380E00
700000
700000
700000
700000
F1F800
F3FC00
F63E00
FC0F00
F80F00
F80780
F00780
F00780
700780
700780
700780
780700
380F00
1C0E00
1E1C00
0FF800
03E000
ENDCHAR

STARTCHAR seven
ENCODING 55
SWIDTH 500 0
DWIDTH 19 0
BBX 17 27 1 -1
BITMAP
3FFF80
7FFF80
7FFF00
700300
600200
600600
600400
400C00
C00800
001800
001800
003800
003000
007000
007000
006000
00E000
00E000
01E000
01E000
01E000
01E000
03E000
03E000
03C000
01C000
018000
ENDCHAR

STARTCHAR eight
ENCODING 56
SWIDTH 500 0
DWIDTH 19 0
BBX 16 28 2 0
BITMAP
07E0
1FF8
3C3C
781E
700F
F00F
F00F
F00F
700F
700E
381E
1C38
07E0
0FF8
3C3C
781E
700F
F00F
F00F
F00F
F00F
F00F
F00F
780E
781E
3C3C
1FF8
03C0
ENDCHAR

STARTCHAR nine
ENCODING 57
SWIDTH 500 0
DWIDTH 19 0
BBX 17 28 1 0
BITMAP
03E000
0FF800
3C3C00
381E00
780E00
700700
F00700
F00700
F00780
F00780
F00780
F00780
780F80
781B80
3E3B80
1FF780
0FC780
000780
000780
000700
000700
380700
780E00
780E00
781C00
383800
1FF000
07C000
ENDCHAR

STARTCHAR colon
ENCODING 58
SWIDTH 281 0
DWIDTH 11 0
BBX 5 21 3 0
BITMAP
70
F8
F8
F8
70
00
00
00
00
00
00
00
00
00
00
00
70
F8
F8
F8
70
ENDCHAR

STARTCHAR semicolon
ENCODING 59
SWIDTH 281 0
DWIDTH 11 0
BBX 6 27 2 -6
BITMAP
38
7C
7C
7C
38
00
00
00
00
00
00
00
00
00
00
00
38
7C
7C
7C
3C
0C
0C
18
30
E0
40
ENDCHAR

STARTCHAR less
ENCODING 60
SWIDTH 667 0
DWIDTH 25 0
BBX 20 19 3 3
BITMAP
000010
000070
0001F0
000F80
003E00
00F800
07C000
1F0000
F80000
E00000
F00000
3E0000
0F8000
03E000
007C00
001F00
0007E0
0000F0
000030
ENDCHAR

STARTCHAR equal
ENCODING 61
SWIDTH 667 0
DWIDTH 25 0
BBX 20 11 3 7
BITMAP
FFFFF0
FFFFF0
000000
000000
000000
000000
000000
000000
000000
FFFFF0
FFFFF0
ENDCHAR

STARTCHAR greater
ENCODING 62
SWIDTH 667 0
DWIDTH 25 0
BBX 20 19 3 3
BITMAP
800000
C00000
F80000
3E0000
0F8000
01F000
007C00
001F00
0003E0
000070
0001F0
0007C0
003E00
00F800
07E000
1F0000
7C0000
F00000
800000
ENDCHAR

STARTCHAR question
ENCODING 63
SWIDTH 448 0
DWIDTH 17 0
BBX 14 29 1 0
BITMAP
0F80
3FE0
70F0
7078
F03C
F03C
F83C
783C
703C
0078
0078
00F0
00E0
01C0
0380
0300
0300
0200
0200
0200
0000
0000
0000
0000
0700
0F80
0F80
0F80
0700
ENDCHAR

STARTCHAR at
ENCODING 64
SWIDTH 917 0
DWIDTH 35 0
BBX 33 35 1 -8
BITMAP
0003FC0000
001C038000
007000C000
00C0002000
0380001000
0700000800
0E00000C00
0C00000400
1800000400
1800F38200
30038B0200
30060B0200
600E0F0200
601C0E0200
60180E0200
C0380E0200
C0700E0600
C0701C0600
C0701C0400
C0E03C0C00
C0E0380800
C0E0581800
40E0B83000
60F3386000
607E38C180
203C1F0300
3000000200
1000000600
1800000C00
0C00000800
0600003000
0300006000
00C001C000
00380F0000
000FF80000
ENDCHAR

STARTCHAR A
ENCODING 65
SWIDTH 802 0
DWIDTH 30 0
BBX 29 29 1 0
BITMAP
00060000
00070000
000F0000
000F8000
000F8000
001F8000
001BC000
003BC000
0031E000
0031E000
0061E000
0060F000
00C0F000
00C07800
00C07800
01807800
01803C00
03003C00
03FFFE00
07FFFE00
06001F00
06000F00
0C000F00
0C000780
1C000780
1C0007C0
3E0007C0
FFC07FF8
FFC07FF8
ENDCHAR

STARTCHAR B
ENCODING 66
SWIDTH 729 0
DWIDTH 28 0
BBX 25 30 1 0
BITMAP
FFFFC000
FFFFF800
0F007C00
0F003E00
0F001E00
0F001F00
0F001F00
0F001F00
0F001F00
0F001F00
0F001E00
0F003E00
0F003C00
0F00F000
0FFFC000
0FFFF800
0F007C00
0F001E00
0F001F00
0F000F80
0F000F80
0F000F80
0F000F80
0F000F80
0F000F80
0F001F00
0F001F00
0F007C00
FFFFF800
FFFFC000
ENDCHAR

STARTCHAR C
ENCODING 67
SWIDTH 719 0
DWIDTH 27 0
BBX 24 29 2 0
BITMAP
003FC0
01FFF8
03C0FC
0F803C
1F001E
1E000E
3C000E
3C0006
7C0006
780002
780000
F80000
F80000
F80000
F80000
F80000
F80000
F80000
F80000
780003
7C0003
3C0007
3C0006
1E000E
1F000C
0F8038
03E0F0
01FFE0
003F00
ENDCHAR

STARTCHAR D
ENCODING 68
SWIDTH 771 0
DWIDTH 29 0
BBX 27 30 1 0
BITMAP
FFFF8000
FFFFF000
0F00FC00
0F003E00
0F001F00
0F000F80
0F000780
0F0007C0
0F0007C0
0F0007C0
0F0003E0
0F0003E0
0F0003E0
0F0003E0
0F0003E0
0F0003E0
0F0003E0
0F0003E0
0F0003E0
0F0003E0
0F0003C0
0F0007C0
0F0007C0
0F000780
0F000F80
0F001F00
0F003E00
0F00FC00
FFFFF000
FFFF8000
ENDCHAR

STARTCHAR E
ENCODING 69
SWIDTH 719 0
DWIDTH 27 0
BBX 24 30 1 0
BITMAP
FFFFFC
FFFFFC
0F007C
0F003C
0F001C
0F000C
0F000E
0F000E
0F0306
0F0306
0F0306
0F0300
0F0700
0F0F00
0FFF00
0FFF00
0F0F00
0F0700
0F0300
0F0303
0F0302
0F0306
0F0006
0F0006
0F000E
0F000E
0F001E
0F007E
FFFFFE
FFFFFE
ENDCHAR

STARTCHAR F
ENCODING 70
SWIDTH 667 0
DWIDTH 25 0
BBX 23 30 2 0
BITMAP
FFFFFC
FFFFFC
0F007C
0F001C
0F001C
0F000E
0F000E
0F0006
0F0306
0F0306
0F0300
0F0300
0F0700
0F0F00
0FFF00
0FFF00
0F0F00
0F0700
0F0300
0F0300
0F0300
0F0300
0F0000
0F0000
0F0000
0F0000
0F0000
0F0000
FFF800
FFF800
ENDCHAR

STARTCHAR G
ENCODING 71
SWIDTH 792 0
DWIDTH 30 0
BBX 28 29 2 0
BITMAP
003FC000
01FFFC00
03E07E00
07801E00
0F000F00
1E000700
3C000700
3C000300
7C000300
78000300
78000000
F8000000
F8000000
F8000000
F8000000
F800FFF0
F800FFF0
F8000F00
78000F00
78000F00
7C000F00
3C000F00
3E000F00
1E000F00
0F000F00
0F800F00
03E07E00
01FFF800
003FC000
ENDCHAR

STARTCHAR H
ENCODING 72
SWIDTH 813 0
DWIDTH 31 0
BBX 29 30 1 0
BITMAP
FFF07FF8
FFF07FF8
0F000780
0F000780
0F000780
0F000780
0F000780
0F000780
0F000780
0F000780
0F000780
0F000780
0F000780
0FFFFF80
0FFFFF80
0F000780
0F000780
0F000780
0F000780
0F000780
0F000780
0F000780
0F000780
0F000780
0F000780
0F000780
0F000780
0F000780
FFF07FF8
FFF07FF8
ENDCHAR

STARTCHAR I
ENCODING 73
SWIDTH 385 0
DWIDTH 15 0
BBX 12 30 1 0
BITMAP
FFF0
FFF0
0F00
0F00
0F00
0F00
0F00
0F00
0F00
0F00
0F00
0F00
0F00
0F00
0F00
0F00
0F00
0F00
0F00
0F00
0F00
0F00
0F00
0F00
0F00
0F00
0F00
0F00
FFF0
FFF0
ENDCHAR

STARTCHAR J
ENCODING 74
SWIDTH 573 0
DWIDTH 22 0
BBX 20 30 1 0
BITMAP
01FFF0
01FFF0
000F00
000F00
000F00
000F00
000F00
000F00
000F00
000F00
000F00
000F00
000F00
000F00
000F00
000F00
000F00
000F00
000F00
780F00
780F00
FC0F00
F80F00
F80F00
F00F00
701E00
701E00
383C00
1FF800
07E000
ENDCHAR

STARTCHAR K
ENCODING 75
SWIDTH 781 0
DWIDTH 30 0
BBX 28 30 1 0
BITMAP
FFF0FFE0
FFF0FFE0
0F001F80
0F001E00
0F001C00
0F003800
0F007000
0F00E000
0F00C000
0F018000
0F030000
0F060000
0F0F0000
0F1F0000
0F3F8000
0F77C000
0FE3C000
0FC3E000
0F81E000
0F01F000
0F00F800
0F007800
0F007C00
0F003E00
0F001E00
0F001F00
0F000F80
0F000FC0
FFF0FFF0
FFF0FFF0
ENDCHAR

STARTCHAR L
ENCODING 76
SWIDTH 677 0
DWIDTH 26 0
BBX 24 30 1 0
BITMAP
FFF800
FFF800
0F0000
0F0000
0F0000
0F0000
0F0000
0F0000
0F0000
0F0000
0F0000
0F0000
0F0000
0F0000
0F0000
0F0000
0F0000
0F0000
0F0000
0F0003
0F0003
0F0007
0F0007
0F0007
0F000E
0F000E
0F001E
0F007E
FFFFFE
FFFFFE
ENDCHAR

STARTCHAR M
ENCODING 77
SWIDTH 979 0
DWIDTH 37 0
BBX 35 30 1 0
BITMAP
FFC0007FE0
FFC0007FE0
0DC0006E00
0DE000DE00
0DE000DE00
0DE000DE00
0CF0019E00
0CF0019E00
0CF8019E00
0C78031E00
0C78031E00
0C7C031E00
0C3C061E00
0C3C061E00
0C1E061E00
0C1E0C1E00
0C1E0C1E00
0C0F0C1E00
0C0F181E00
0C0F981E00
0C07981E00
0C07B01E00
0C07F01E00
0C03F01E00
0C03E01E00
0C01E01E00
1E01E01E00
3F01C01E00
FFC0C1FFE0
FFC0C1FFE0
ENDCHAR

STARTCHAR N
ENCODING 78
SWIDTH 823 0
DWIDTH 31 0
BBX 29 30 2 0
BITMAP
FE003FF8
FF003FF8
0F8007E0
0F8003C0
0FC00180
0DE00180
0DE00180
0DF00180
0CF80180
0C780180
0C3C0180
0C3E0180
0C1E0180
0C0F0180
0C0F8180
0C07C180
0C03C180
0C03E180
0C01F180
0C00F180
0C00F980
0C007D80
0C003D80
0C003E80
0C001F80
0C000F80
1E000F80
3F000780
FFE00380
FFE00380
ENDCHAR

STARTCHAR O
ENCODING 79
SWIDTH 792 0
DWIDTH 30 0
BBX 27 29 2 0
BITMAP
007F8000
01FFF000
07C07800
0F803E00
1F001F00
1E000F00
3C000780
7C0007C0
7C0007C0
780003C0
F80003E0
F80003E0
F80003E0
F80003E0
F80003E0
F80003E0
F80003E0
F80003E0
780003C0
780003C0
7C0007C0
3C000780
3C000780
1E000F00
0F001F00
0F803E00
03E0F800
01FFF000
003F8000
ENDCHAR

STARTCHAR P
ENCODING 80
SWIDTH 667 0
DWIDTH 25 0
BBX 24 30 1 0
BITMAP
FFFFC0
FFFFF0
0F00FC
0F007C
0F003E
0F001F
0F001F
0F001F
0F001F
0F001F
0F001F
0F001E
0F003E
0F007C
0F00F8
0FFFF0
0FFF80
0F0000
0F0000
0F0000
0F0000
0F0000
0F0000
0F0000
0F0000
0F0000
0F0000
0F0000
FFFC00
FFFC00
ENDCHAR

STARTCHAR Q
ENCODING 81
SWIDTH 792 0
DWIDTH 30 0
BBX 30 33 2 -4
BITMAP
007F8000
01FFF000
07C07800
0F803E00
1F001F00
1E000F00
3C000780
7C0007C0
7C0007C0
780003C0
F80003E0
F80003E0
F80003E0
F80003E0
F80003E0
F80003E0
F80003E0
F87C03E0
79FF03E0
798F83C0
7F0787C0
3E03C7C0
3E03C780
1E01CF00
0F01EF00
0F81FE00
03C0F800
01FFF000
003FF800
00003C00
00001F00
00000FFC
000001FC
ENDCHAR

STARTCHAR R
ENCODING 82
SWIDTH 729 0
DWIDTH 28 0
BBX 26 30 1 0
BITMAP
FFFF8000
FFFFE000
0F00F800
0F007C00
0F003C00
0F003E00
0F003E00
0F003E00
0F003E00
0F003E00
0F003C00
0F003C00
0F007800
0F01F000
0FFFE000
0FFF0000
0F078000
0F03C000
0F03E000
0F01E000
0F01F000
0F00F000
0F00F800
0F007800
0F007C00
0F003C00
0F003E00
0F001E00
FFF01FC0
FFF00FC0
ENDCHAR

STARTCHAR S
ENCODING 83
SWIDTH 615 0
DWIDTH 23 0
BBX 19 29 3 0
BITMAP
03F800
1FFF80
3C0FC0
7807C0
7003C0
F001C0
F001C0
F000C0
F800C0
FC00C0
7E0000
7F8000
3FE000
0FFC00
03FE00
00FF80
003FC0
000FC0
C007E0
C003E0
C001E0
C001E0
E001E0
E001E0
F003C0
F80780
FC0F00
3FFE00
07F800
ENDCHAR

STARTCHAR T
ENCODING 84
SWIDTH 698 0
DWIDTH 27 0
BBX 24 30 1 0
BITMAP
FFFFFF
FFFFFF
FC3C3F
F03C0F
F03C07
E03C07
C03C03
C03C03
C03C03
C03C03
C03C01
003C00
003C00
003C00
003C00
003C00
003C00
003C00
003C00
003C00
003C00
003C00
003C00
003C00
003C00
003C00
003C00
003C00
03FFC0
03FFC0
ENDCHAR

STARTCHAR U
ENCODING 85
SWIDTH 771 0
DWIDTH 29 0
BBX 28 30 1 0
BITMAP
FFF03FF0
FFF03FF0
0F0007C0
0F000380
0F000300
0F000300
0F000300
0F000300
0F000300
0F000300
0F000300
0F000300
0F000300
0F000300
0F000300
0F000300
0F000300
0F000300
0F000300
0F000300
0F000300
0F000300
0F000300
0F000300
0F800600
07800E00
07C01C00
03F07800
00FFF000
003FC000
ENDCHAR

STARTCHAR V
ENCODING 86
SWIDTH 792 0
DWIDTH 30 0
BBX 28 29 1 1
BITMAP
FFE03FF0
FFE03FF0
1F0007C0
0F000380
0F000380
0F800300
07800300
07800600
03C00600
03C00600
03C00C00
01E00C00
01E01C00
00F01800
00F01800
00F03000
00783000
00787000
003C6000
003C6000
003CC000
001EC000
001EC000
000F8000
000F8000
000F0000
00070000
00070000
00020000
ENDCHAR

STARTCHAR W
ENCODING 87
SWIDTH 1010 0
DWIDTH 38 0
BBX 37 29 1 1
BITMAP
FFC7FF8FF8
FFC7FF8FF8
3E007801E0
1E007800C0
1E007C00C0
1F007C01C0
0F007C0180
0F00FC0180
0F80DE0380
0780DE0300
0780DE0300
07818F0300
03C18F0600
03C18F0600
03C3878600
01E3078C00
01E3078C00
01E303CC00
00F603DC00
00F603D800
00F603F800
007E01F800
007C01F000
007C01F000
003C00F000
003800E000
003800E000
0018006000
0018006000
ENDCHAR

STARTCHAR X
ENCODING 88
SWIDTH 729 0
DWIDTH 28 0
BBX 26 29 1 0
BITMAP
FFE1FF80
FFE1FF80
3F003E00
1F003C00
1F003800
0F803000
07C06000
03C0E000
03E0C000
01F18000
00FB8000
00FB0000
007E0000
003E0000
001E0000
001F0000
003F8000
0077C000
0067C000
00C3E000
01C1F000
0380F000
0300F800
07007C00
0E003E00
1E003E00
3F003F00
FFC1FFC0
FFC1FFC0
ENDCHAR

STARTCHAR Y
ENCODING 89
SWIDTH 729 0
DWIDTH 28 0
BBX 27 30 1 0
BITMAP
FFE07FE0
FFE07FE0
1F000F80
1F000F00
0F800E00
07800C00
07C01C00
03C01800
03E03800
01F03000
00F07000
00F86000
0078E000
007CC000
003EC000
001F8000
001F8000
000F0000
000F0000
000F0000
000F0000
000F0000
000F0000
000F0000
000F0000
000F0000
000F0000
000F0000
00FFF000
00FFF000
ENDCHAR

STARTCHAR Z
ENCODING 90
SWIDTH 625 0
DWIDTH 24 0
BBX 21 30 1 0
BITMAP
3FFFF8
3FFFF8
7E00F8
7C01F0
7801E0
7003E0
7003C0
6007C0
600F80
600F00
001F00
001E00
003E00
007C00
007800
00F800
01F000
01E000
03E000
03C008
07C018
0F8018
0F0018
1F0038
3E0038
3E0078
7C00F8
7801F8
FFFFF8
FFFFF8
ENDCHAR

STARTCHAR bracketleft
ENCODING 91
SWIDTH 344 0
DWIDTH 13 0
BBX 9 34 3 -4
BITMAP
FF80
FF80
F000
F000
F000
F000
F000
F000
F000
F000
F000
F000
F000
F000
F000
F000
F000
F000
F000
F000
F000
F000
F000
F000
F000
F000
F000
F000
F000
F000
F000
F000
FF80
FF80
ENDCHAR

STARTCHAR backslash
ENCODING 92
SWIDTH 510 0
DWIDTH 19 0
BBX 17 32 1 -1
BITMAP
C00000
600000
600000
300000
300000
180000
180000
0C0000
0C0000
060000
060000
030000
030000
018000
018000
00C000
00C000
00E000
006000
007000
003000
003000
001800
001800
000C00
000C00
000600
000600
000300
000300
000180
000180
ENDCHAR

STARTCHAR bracketright
ENCODING 93
SWIDTH 344 0
DWIDTH 13 0
BBX 9 34 1 -4
BITMAP
FF80
FF80
0780
0780
0780
0780
0780
0780
0780
0780
0780
0780
0780
0780
0780
0780
0780
0780
0780
0780
0780
0780
0780
0780
0780
0780
0780
0780
0780
0780
0780
0780
FF80
FF80
ENDCHAR

STARTCHAR asciicircum
ENCODING 94
SWIDTH 469 0
DWIDTH 18 0
BBX 16 14 1 12
BITMAP
0080
0180
03C0
0340
0660
0420
0C30
1818
1818
300C
2004
6006
C003
C003
ENDCHAR

STARTCHAR underscore
ENCODING 95
SWIDTH 500 0
DWIDTH 19 0
BBX 19 2 0 -8
BITMAP
FFFFE0
FFFFE0
ENDCHAR

STARTCHAR quoteleft
ENCODING 96
SWIDTH 281 0
DWIDTH 11 0
BBX 6 11 3 18
BITMAP
0C
18
30
60
C0
C0
F0
F8
F8
F8
70
ENDCHAR

STARTCHAR a
ENCODING 97
SWIDTH 563 0
DWIDTH 21 0
BBX 19 21 1 0
BITMAP
03F000
0FFC00
3C1E00
3C0F00
7C0F00
780F00
380F00
000F00
000F00
01FF00
0FCF00
1E0F00
780F00
700F00
F00F00
F00F00
F01F00
F03F00
7877A0
3FC3E0
1F81E0
ENDCHAR

STARTCHAR b
ENCODING 98
SWIDTH 594 0
DWIDTH 23 0
BBX 20 29 1 0
BITMAP
FE0000
FE0000
1E0000
1E0000
1E0000
1E0000
1E0000
1E0000
1E3E00
1E7F80
1FC3C0
1F81C0
1F01E0
1E00E0
1E00F0
1E00F0
1E00F0
1E00F0
1E00F0
1E00F0
1E00F0
1E00F0
1E00E0
1E00E0
1E01E0
1F01C0
1F8780
1DFF00
187C00
ENDCHAR

STARTCHAR c
ENCODING 99
SWIDTH 510 0
DWIDTH 19 0
BBX 17 21 2 0
BITMAP
03F000
0FFC00
1E1E00
3C0F00
380F00
780F00
700F00
F00600
F00000
F00000
F00000
F00000
F00000
F00000
700000
780380
780300
3C0600
1E1C00
0FF800
03E000
ENDCHAR

STARTCHAR d
ENCODING 100
SWIDTH 594 0
DWIDTH 23 0
BBX 20 29 2 0
BITMAP
007F80
007F80
000780
000780
000780
000780
000780
000780
07C780
0FE780
1C3B80
380F80
780F80
780780
F00780
F00780
F00780
F00780
F00780
F00780
F00780
F00780
F00780
780780
780F80
381B80
3C37C0
1FE3F0
07C3F0
ENDCHAR

STARTCHAR e
ENCODING 101
SWIDTH 521 0
DWIDTH 20 0
BBX 17 21 1 0
BITMAP
03E000
0FF800
1E1C00
3C0E00
780F00
780700
700780
F00780
F00780
FFFF80
FFFF80
F00000
F00000
F00000
700000
780180
780300
3C0700
1E1E00
0FF800
03E000
ENDCHAR

STARTCHAR f
ENCODING 102
SWIDTH 344 0
DWIDTH 13 0
BBX 16 29 1 0
BITMAP
01F0
07FE
0F1F
0E0F
1E0F
1E00
1E00
1E00
1E00
FFE0
FFE0
1E00
1E00
1E00
1E00
1E00
1E00
1E00
1E00
1E00
1E00
1E00
1E00
1E00
1E00
1E00
1E00
FFE0
FFE0
ENDCHAR

STARTCHAR g
ENCODING 103
SWIDTH 552 0
DWIDTH 21 0
BBX 20 28 1 -7
BITMAP
07F860
1E1FF0
3C0EE0
380700
780780
780780
780780
780780
380700
3C0F00
061E00
1FF800
380000
600000
600000
700000
7FFF00
3FFF80
07FFC0
1E03E0
7000E0
E000E0
E000E0
E000C0
F001C0
7C0780
3FFE00
07F800
ENDCHAR

STARTCHAR h
ENCODING 104
SWIDTH 646 0
DWIDTH 25 0
BBX 23 29 1 0
BITMAP
FE0000
FE0000
3E0000
1E0000
1E0000
1E0000
1E0000
1E0000
1E0F00
1E3FC0
1E7FE0
1EC1E0
1F80F0
1F00F0
1E00F0
1E00F0
1E00F0
1E00F0
1E00F0
1E00F0
1E00F0
1E00F0
1E00F0
1E00F0
1E00F0
1E00F0
1E00F0
FFC7FE
FFC7FE
ENDCHAR

STARTCHAR i
ENCODING 105
SWIDTH 365 0
DWIDTH 14 0
BBX 12 29 2 0
BITMAP
0E00
1F00
1F00
1F00
0E00
0000
0000
0000
FF00
FF00
1F00
0F00
0F00
0F00
0F00
0F00
0F00
0F00
0F00
0F00
0F00
0F00
0F00
0F00
0F00
0F00
0F00
FFF0
FFF0
ENDCHAR

STARTCHAR j
ENCODING 106
SWIDTH 323 0
DWIDTH 12 0
BBX 11 36 -2 -7
BITMAP
01C0
03E0
03E0
03E0
01C0
0000
0000
0000
1FE0
1FE0
03E0
01E0
01E0
01E0
01E0
01E0
01E0
01E0
01E0
01E0
01E0
01E0
01E0
01E0
01E0
01E0
01E0
01E0
01E0
01E0
01C0
61C0
F1C0
F980
FF00
3C00
ENDCHAR

STARTCHAR k
ENCODING 107
SWIDTH 625 0
DWIDTH 24 0
BBX 22 29 1 0
BITMAP
FE0000
FE0000
1E0000
1E0000
1E0000
1E0000
1E0000
1E0000
1E1FF8
1E1FF8
1E03C0
1E0300
1E0600
1E0C00
1E1800
1E3000
1E7800
1EFC00
1EBC00
1F1E00
1E1F00
1E0F00
1E0780
1E07C0
1E03C0
1E01E0
1E01F0
FFC7FC
FFC7FC
ENDCHAR

STARTCHAR l
ENCODING 108
SWIDTH 333 0
DWIDTH 13 0
BBX 12 29 0 0
BITMAP
FF00
FF00
0F00
0F00
0F00
0F00
0F00
0F00
0F00
0F00
0F00
0F00
0F00
0F00
0F00
0F00
0F00
0F00
0F00
0F00
0F00
0F00
0F00
0F00
0F00
0F00
0F00
FFF0
FFF0
ENDCHAR

STARTCHAR m
ENCODING 109
SWIDTH 938 0
DWIDTH 36 0
BBX 34 21 1 0
BITMAP
FC0F00E000
FE3F83F800
3E7FC7FC00
1EC3EC3C00
1F81F81E00
1F01F01E00
1E01E01E00
1E01E01E00
1E01E01E00
1E01E01E00
1E01E01E00
1E01E01E00
1E01E01E00
1E01E01E00
1E01E01E00
1E01E01E00
1E01E01E00
1E01E01E00
1E01E01E00
FFCFFCFFC0
FFCFFCFFC0
ENDCHAR

STARTCHAR n
ENCODING 110
SWIDTH 646 0
DWIDTH 25 0
BBX 23 21 1 0
BITMAP
FC0F00
FC3FC0
3E7FE0
1EC1E0
1F81F0
1F00F0
1E00F0
1E00F0
1E00F0
1E00F0
1E00F0
1E00F0
1E00F0
1E00F0
1E00F0
1E00F0
1E00F0
1E00F0
1E00F0
FFC7FE
FFC7FE
ENDCHAR

STARTCHAR o
ENCODING 111
SWIDTH 562 0
DWIDTH 21 0
BBX 19 21 1 0
BITMAP
01F000
0FFE00
1E0F00
3C0780
3803C0
7803C0
7801C0
F001E0
F001E0
F001E0
F001E0
F001E0
F001E0
F001E0
7801C0
7803C0
3803C0
3C0780
1E0F00
07FE00
01F000
ENDCHAR

STARTCHAR p
ENCODING 112
SWIDTH 594 0
DWIDTH 23 0
BBX 20 28 1 -7
BITMAP
FC3E00
FC7F00
1CC3C0
1F83C0
1F01E0
1E01E0
1E00F0
1E00F0
1E00F0
1E00F0
1E00F0
1E00F0
1E00F0
1E00F0
1E00F0
1E01E0
1F01E0
1F83C0
1EC7C0
1E7F80
1E3E00
1E0000
1E0000
1E0000
1E0000
1E0000
FFE000
FFE000
ENDCHAR

STARTCHAR q
ENCODING 113
SWIDTH 594 0
DWIDTH 23 0
BBX 20 28 2 -7
BITMAP
03E080
0FFD80
1C1F80
380F80
780780
780780
700780
F00780
F00780
F00780
F00780
F00780
F00780
F00780
700780
780780
780F80
3C1F80
3C3780
1FE780
07C780
000780
000780
000780
000780
000780
007FF0
007FF0
ENDCHAR

STARTCHAR r
ENCODING 114
SWIDTH 490 0
DWIDTH 19 0
BBX 17 21 1 0
BITMAP
FC1F00
FC3F80
1E7780
1EC780
1F8780
1F0700
1E0000
1E0000
1E0000
1E0000
1E0000
1E0000
1E0000
1E0000
1E0000
1E0000
1E0000
1E0000
1E0000
FFE000
FFE000
ENDCHAR

STARTCHAR s
ENCODING 115
SWIDTH 479 0
DWIDTH 18 0
BBX 15 21 2 0
BITMAP
0FC0
3FF8
7038
601C
E01C
E00C
E00C
F800
7E00
7FE0
1FF8
07FC
00FE
001E
C00E
C00E
C00E
E00C
F83C
FFF0
1FC0
ENDCHAR

STARTCHAR t
ENCODING 116
SWIDTH 375 0
DWIDTH 14 0
BBX 13 28 1 0
BITMAP
0600
0600
0600
0600
0600
0E00
1E00
3E00
FFF0
FFF0
1E00
1E00
1E00
1E00
1E00
1E00
1E00
1E00
1E00
1E00
1E00
1E00
1E00
1E00
1E08
0F38
0FF0
07C0
ENDCHAR

STARTCHAR u
ENCODING 117
SWIDTH 646 0
DWIDTH 25 0
BBX 23 21 1 0
BITMAP
FE0FF0
FE0FF0
3E01F0
1E00F0
1E00F0
1E00F0
1E00F0
1E00F0
1E00F0
1E00F0
1E00F0
1E00F0
1E00F0
1E00F0
1E00F0
1E01F0
1E03F0
0F06F0
0FFCF8
07F87E
01E07C
ENDCHAR

STARTCHAR v
ENCODING 118
SWIDTH 594 0
DWIDTH 23 0
BBX 21 21 1 0
BITMAP
FF87F8
FF87F8
3C00E0
1C00C0
1E00C0
1E0180
0E0180
0F0180
070300
078300
078200
038600
03C600
03CC00
01CC00
01EC00
00F800
00F800
00F800
007000
007000
ENDCHAR

STARTCHAR w
ENCODING 119
SWIDTH 833 0
DWIDTH 32 0
BBX 30 21 1 0
BITMAP
FF9FF1FC
FF9FF1FC
3C07C070
1C038060
1E03C060
1E03C060
0E07C040
0F06E0C0
0F06E0C0
070CE0C0
070CF180
078C7180
03887180
03987900
03D83B00
01D83B00
01F03E00
01F01E00
00F01E00
00E01E00
00E00C00
ENDCHAR

STARTCHAR x
ENCODING 120
SWIDTH 583 0
DWIDTH 22 0
BBX 21 21 1 0
BITMAP
FF8FF0
FF8FF0
3E0380
1E0300
0F0700
0F0600
078C00
03D800
01F000
01F000
00F000
00F800
01BC00
033C00
031E00
060F00
0C0F80
180780
3803C0
FF1FF8
FF1FF8
ENDCHAR

STARTCHAR y
ENCODING 121
SWIDTH 594 0
DWIDTH 23 0
BBX 21 28 1 -7
BITMAP
FF87F8
FF87F8
3E00E0
1E00C0
1E00C0
0E0180
0F0180
0F0180
078300
078300
038200
03C600
01C600
01EC00
01EC00
00EC00
00F800
007800
007000
007000
003000
006000
006000
78E000
78C000
798000
3F8000
1E0000
ENDCHAR

STARTCHAR z
ENCODING 122
SWIDTH 479 0
DWIDTH 18 0
BBX 16 21 1 0
BITMAP
7FFF
7FFF
701E
601E
603C
6078
4078
00F0
01E0
01E0
03C0
0780
0780
0F03
1E03
1E03
3C03
7807
700F
FFFF
FFFE
ENDCHAR

STARTCHAR braceleft
ENCODING 123
SWIDTH 479 0
DWIDTH 18 0
BBX 10 35 4 -6
BITMAP
0040
0180
0600
0400
0C00
0C00
1C00
1C00
1C00
1E00
1E00
0E00
0E00
0C00
0C00
1800
3000
C000
6000
1800
0800
0C00
0E00
0E00
0E00
1E00
1E00
1C00
1C00
1C00
0C00
0C00
0600
0300
00C0
ENDCHAR

STARTCHAR bar
ENCODING 124
SWIDTH 510 0
DWIDTH 19 0
BBX 2 32 9 -1
BITMAP
C0
C0
C0
C0
C0
C0
C0
C0
C0
C0
C0
C0
C0
C0
C0
C0
C0
C0
C0
C0
C0
C0
C0
C0
C0
C0
C0
C0
C0
C0
C0
C0
ENDCHAR

STARTCHAR braceright
ENCODING 125
SWIDTH 479 0
DWIDTH 18 0
BBX 10 35 4 -6
BITMAP
8000
6000
1800
0800
0C00
0E00
0E00
0E00
0E00
1E00
1C00
1C00
1C00
0C00
0C00
0600
0300
0040
0180
0200
0400
0C00
1C00
1C00
1C00
1E00
0E00
0E00
0E00
0E00
0C00
0C00
1800
3000
C000
ENDCHAR

STARTCHAR asciitilde
ENCODING 126
SWIDTH 667 0
DWIDTH 25 0
BBX 20 5 3 10
BITMAP
3E0010
7FC020
C1F060
803FC0
800780
ENDCHAR

STARTCHAR space
ENCODING 160
SWIDTH 250 0
DWIDTH 12 0
BBX 0 0 0 0
BITMAP
ENDCHAR

STARTCHAR afii10023
ENCODING 161
SWIDTH 698 0
DWIDTH 27 0
BBX 25 36 1 0
BITMAP
07007000
0F80F800
0F80F800
07007000
00000000
00000000
FFFFFE00
FFFFFE00
0F803E00
0F001E00
0F000E00
0F000600
0F000700
0F000700
0F018300
0F018300
0F018300
0F018000
0F038000
0F078000
0FFF8000
0FFF8000
0F078000
0F038000
0F018000
0F018180
0F018100
0F018300
0F000300
0F000300
0F000700
0F000700
0F000F00
0F803F00
FFFFFF00
FFFFFF00
ENDCHAR

STARTCHAR afii10051
ENCODING 162
SWIDTH 875 0
DWIDTH 33 0
BBX 32 30 0 0
BITMAP
7FFFFF00
FFFFFF00
FC3E3F00
F03C0F00
F03C0700
E03C0700
E03C0300
C03C0300
C03C0300
003C0000
003C0000
003C0F80
003C3FE0
003CFFF8
003DE0FC
003F803C
003F003E
003C001E
003C001F
003C001F
003C001F
003C001F
003C001F
003C001F
003C001E
003C001E
003C003C
003C067C
03FFC7F8
03FFC3E0
ENDCHAR

STARTCHAR afii10052
ENCODING 163
SWIDTH 635 0
DWIDTH 24 0
BBX 23 38 1 0
BITMAP
000100
000780
000F80
003F00
00F800
008000
000000
000000
FFFFFC
FFFFFC
0F007C
0F003C
0F001C
0F000C
0F000C
0F000C
0F000C
0F0006
0F0006
0F0000
0F0000
0F0000
0F0000
0F0000
0F0000
0F0000
0F0000
0F0000
0F0000
0F0000
0F0000
0F0000
0F0000
0F0000
0F0000
0F0000
FFF000
FFF000
ENDCHAR

STARTCHAR afii10053
ENCODING 164
SWIDTH 698 0
DWIDTH 27 0
BBX 24 29 1 0
BITMAP
003FC0
01FFF8
03C0FC
07803E
0F001E
1E000E
3C000E
3C0006
7C0006
780006
780000
F80000
F80000
F80000
FFFF00
FFFF00
F80000
F80000
F80000
780003
7C0003
7C0003
3C0006
1E000E
1F000C
0F8038
07E0F0
01FFE0
003F80
ENDCHAR

STARTCHAR afii10054
ENCODING 165
SWIDTH 594 0
DWIDTH 23 0
BBX 19 29 2 0
BITMAP
03F800
1FFF80
3C0FC0
7807C0
7003C0
F001C0
F001C0
F000C0
F800C0
FC00C0
7E0000
7F8000
3FE000
0FFC00
03FE00
00FF80
003FC0
000FC0
C007E0
C003E0
C001E0
C001E0
E001E0
E001E0
F003C0
F80780
FC0F00
3FFE00
07F800
ENDCHAR

STARTCHAR afii10055
ENCODING 166
SWIDTH 385 0
DWIDTH 15 0
BBX 12 30 1 0
BITMAP
FFF0
FFF0
0F00
0F00
0F00
0F00
0F00
0F00
0F00
0F00
0F00
0F00
0F00
0F00
0F00
0F00
0F00
0F00
0F00
0F00
0F00
0F00
0F00
0F00
0F00
0F00
0F00
0F00
FFF0
FFF0
ENDCHAR

STARTCHAR afii10056
ENCODING 167
SWIDTH 385 0
DWIDTH 15 0
BBX 16 36 -1 0
BITMAP
700E
F81F
F81F
700E
0000
0000
3FFC
3FFC
03C0
03C0
03C0
03C0
03C0
03C0
03C0
03C0
03C0
03C0
03C0
03C0
03C0
03C0
03C0
03C0
03C0
03C0
03C0
03C0
03C0
03C0
03C0
03C0
03C0
03C0
3FFC
3FFC
ENDCHAR

STARTCHAR afii10057
ENCODING 168
SWIDTH 573 0
DWIDTH 22 0
BBX 20 30 1 0
BITMAP
01FFF0
01FFF0
000F00
000F00
000F00
000F00
000F00
000F00
000F00
000F00
000F00
000F00
000F00
000F00
000F00
000F00
000F00
000F00
000F00
780F00
780F00
FC0F00
F80F00
F80F00
F00F00
701E00
701E00
383C00
1FF800
07E000
ENDCHAR

STARTCHAR afii10058
ENCODING 169
SWIDTH 1092 0
DWIDTH 41 0
BBX 40 30 0 0
BITMAP
03FFFFF800
03FFFFF800
0078078000
0070078000
0070078000
0070078000
0070078000
0070078000
0070078000
0070078000
0070078000
0070078000
0060078000
006007FF80
006007FFF0
00600780F8
006007807C
006007803E
006007801E
006007801F
00C007801F
00C007801F
00C007801F
00C007801F
798007801E
F98007803E
FF8007807C
FF000FC0F8
7E007FFFF0
3C007FFF80
ENDCHAR

STARTCHAR afii10059
ENCODING 170
SWIDTH 1089 0
DWIDTH 41 0
BBX 39 30 1 0
BITMAP
FFF0FFF000
FFF0FFF000
0F800F0000
0F000F0000
0F000F0000
0F000F0000
0F000F0000
0F000F0000
0F000F0000
0F000F0000
0F000F0000
0F000F0000
0F000F0000
0F000F0000
0FFFFFFF00
0FFFFFFFE0
0F000F01F0
0F000F0078
0F000F007C
0F000F003E
0F000F003E
0F000F003E
0F000F003E
0F000F003E
0F000F003E
0F000F007C
0F000F0078
1F001F81F0
FFF0FFFFE0
FFF0FFFF00
ENDCHAR

STARTCHAR afii10060
ENCODING 171
SWIDTH 885 0
DWIDTH 34 0
BBX 32 30 1 0
BITMAP
7FFFFE00
FFFFFE00
FC3C3E00
F03C1E00
F03C0E00
E03C0700
E03C0700
C03C0300
C03C0300
003C0000
003C0000
003C0F00
003C3FC0
003CFFE0
003DC1E0
003F01F0
003E00F0
003C00F0
003C00F0
003C00F0
003C00F0
003C00F0
003C00F0
003C00F0
003C00F0
003C00F0
003C00F0
007C00F0
03FFC7FF
03FFC7FF
ENDCHAR

STARTCHAR afii10061
ENCODING 172
SWIDTH 759 0
DWIDTH 29 0
BBX 28 36 1 0
BITMAP
00006000
0001F000
0003F000
000FC000
003C0000
00000000
FFF00000
FFF00780
0F000FC0
0F001FC0
0F003FC0
0F0033C0
0F002000
0F006000
0F006000
0F00C000
0F00C000
0F008000
0F018000
0F030000
0F040000
0FFF0000
0FFFC000
0F03E000
0F01E000
0F00F000
0F00F000
0F007800
0F007800
0F003C00
0F003C00
0F001E00
0F001F00
0F000F80
FFF00FF0
FFF007F0
ENDCHAR

STARTCHAR hyphen
ENCODING 173
SWIDTH 281 0
DWIDTH 11 0
BBX 8 3 1 9
BITMAP
FF
FF
FF
ENDCHAR

STARTCHAR afii10062
ENCODING 174
SWIDTH 732 0
DWIDTH 28 0
BBX 28 38 0 0
BITMAP
00603000
00F07800
00E07800
00E03800
00607000
003FE000
000F8000
00000000
00000000
FFE07FF0
FFE07FF0
3F000780
1F000700
0F000700
0F800600
07800600
07800C00
07C00C00
03C01800
03E01800
01E03000
01F03000
00F06000
00F06000
00784000
0078C000
003CC000
003D8000
001F8000
001F0000
001F0000
0C0E0000
1E060000
1E0C0000
1F0C0000
1F180000
0FF00000
03E00000
ENDCHAR

STARTCHAR afii10145
ENCODING 175
SWIDTH 823 0
DWIDTH 31 0
BBX 29 36 1 -6
BITMAP
FFF07FF8
FFF07FF8
0F000780
0F000780
0F000780
0F000780
0F000780
0F000780
0F000780
0F000780
0F000780
0F000780
0F000780
0F000780
0F000780
0F000780
0F000780
0F000780
0F000780
0F000780
0F000780
0F000780
0F000780
0F000780
0F000780
0F000780
0F000780
1F000FC0
FFFFFFF8
FFFFFFF8
003FC000
000F8000
00070000
00070000
00070000
00020000
ENDCHAR

STARTCHAR afii10017
ENCODING 176
SWIDTH 792 0
DWIDTH 30 0
BBX 29 29 1 0
BITMAP
00060000
00070000
000F0000
000F0000
001F8000
001F8000
001BC000
0033C000
0033C000
0061E000
0061E000
0061F000
00C0F000
00C0F000
01807800
01807800
01807C00
03003C00
03FFFC00
07FFFE00
06001E00
0E001F00
0C000F00
0C000F80
1C000780
1C000780
3C0007C0
FFC07FF8
FFC07FF8
ENDCHAR

STARTCHAR afii10018
ENCODING 177
SWIDTH 701 0
DWIDTH 27 0
BBX 24 30 1 0
BITMAP
FFFFFC
FFFFFC
0F007C
0F003C
0F001C
0F001C
0F000C
0F000C
0F000C
0F0004
0F0000
0F0000
0F0000
0FFF00
0FFFE0
0F00F8
0F007C
0F003E
0F001E
0F001F
0F001F
0F001F
0F001F
0F001F
0F001F
0F003E
0F003C
0F00F8
FFFFF0
FFFF80
ENDCHAR

STARTCHAR afii10019
ENCODING 178
SWIDTH 719 0
DWIDTH 27 0
BBX 24 30 1 0
BITMAP
FFFF80
FFFFF0
0F00F8
0F007C
0F003C
0F003E
0F003E
0F003E
0F003E
0F003E
0F003C
0F003C
0F0078
0F01E0
0FFF80
0FFFF0
0F00F8
0F003C
0F003E
0F001F
0F001F
0F001F
0F001F
0F001F
0F001F
0F001E
0F003E
0F00FC
FFFFF0
FFFF80
ENDCHAR

STARTCHAR afii10020
ENCODING 179
SWIDTH 635 0
DWIDTH 24 0
BBX 23 30 1 0
BITMAP
FFFFFC
FFFFFC
0F007C
0F003C
0F001C
0F000C
0F000C
0F000C
0F000C
0F0006
0F0006
0F0000
0F0000
0F0000
0F0000
0F0000
0F0000
0F0000
0F0000
0F0000
0F0000
0F0000
0F0000
0F0000
0F0000
0F0000
0F0000
0F0000
FFF000
FFF000
ENDCHAR

STARTCHAR afii10021
ENCODING 180
SWIDTH 760 0
DWIDTH 29 0
BBX 28 36 0 -6
BITMAP
07FFFFF0
07FFFFF0
01F80F00
00F00F00
00700F00
00700F00
00700F00
00700F00
00600F00
00600F00
00600F00
00600F00
00600F00
00600F00
00600F00
00600F00
00600F00
00C00F00
00C00F00
00C00F00
00C00F00
01800F00
01800F00
03800F00
03000F00
06000F00
0E000F00
18000F00
FFFFFFF0
FFFFFFF0
F80001F0
F00000F0
E0000070
E0000030
C0000030
C0000030
ENDCHAR

STARTCHAR afii10022
ENCODING 181
SWIDTH 698 0
DWIDTH 27 0
BBX 24 30 1 0
BITMAP
FFFFFC
FFFFFC
0F007C
0F003C
0F001C
0F000C
0F000E
0F000E
0F0306
0F0306
0F0306
0F0300
0F0700
0F0F00
0FFF00
0FFF00
0F0F00
0F0700
0F0300
0F0303
0F0302
0F0306
0F0006
0F0006
0F000E
0F000E
0F001E
0F007E
FFFFFE
FFFFFE
ENDCHAR

STARTCHAR afii10024
ENCODING 182
SWIDTH 1115 0
DWIDTH 42 0
BBX 42 30 0 0
BITMAP
0001FFE00000
1E01FFE01E00
3F001E003F00
3F801E007F00
3F801E007F00
3DC01E00CF00
00C01E00C000
00401E008000
00601E018000
00601E018000
00201E010000
00301E030000
00301E030000
00181E060000
001C1E0E0000
0007FFF80000
003FFFFF0000
007C1E0F8000
00F81E03C000
00F01E03C000
01E01E01E000
01E01E01E000
03C01E00F000
03C01E00F000
07C01E007800
07801E007800
0F801E007C00
1F001E003E00
FF01FFE03FC0
FE01FFE01FC0
ENDCHAR

STARTCHAR afii10025
ENCODING 183
SWIDTH 601 0
DWIDTH 23 0
BBX 20 29 2 0
BITMAP
03F800
3FFF00
7C0F80
7807C0
7003C0
6003E0
6003E0
6003E0
C003E0
0003C0
000780
000F80
003E00
03F000
03FE00
001F80
0007C0
0003E0
0001F0
0001F0
0001F0
8001F0
C001F0
C001E0
6003E0
7007C0
3C1F80
1FFF00
07F800
ENDCHAR

STARTCHAR afii10026
ENCODING 184
SWIDTH 823 0
DWIDTH 31 0
BBX 29 29 1 0
BITMAP
FFF07FF8
FFF07FF8
0F000780
0F000780
0F000F80
0F000F80
0F001F80
0F003B80
0F003780
0F006780
0F00E780
0F01C780
0F018780
0F030780
0F070780
0F060780
0F0C0780
0F1C0780
0F380780
0F300780
0F700780
0F600780
0FC00780
0F800780
0F800780
0F000780
1F0007C0
FFF07FF8
FFF07FF8
ENDCHAR

STARTCHAR afii10027
ENCODING 185
SWIDTH 823 0
DWIDTH 31 0
BBX 29 38 1 0
BITMAP
00301800
00703C00
00783C00
00701C00
00303800
003FF000
0007C000
00000000
00000000
FFF07FF8
FFF07FF8
0F800780
0F000780
0F000F80
0F000F80
0F001F80
0F003B80
0F003780
0F006780
0F00E780
0F00C780
0F018780
0F038780
0F070780
0F060780
0F0C0780
0F1C0780
0F180780
0F300780
0F700780
0F600780
0FC00780
0FC00780
0F800780
0F000780
1F8007C0
FFF07FF8
FFF07FF8
ENDCHAR

STARTCHAR afii10028
ENCODING 186
SWIDTH 759 0
DWIDTH 29 0
BBX 28 30 1 0
BITMAP
FFF00000
FFF00780
0F000FC0
0F001FC0
0F003FC0
0F0033C0
0F002000
0F006000
0F006000
0F00C000
0F00C000
0F008000
0F018000
0F030000
0F040000
0FFF0000
0FFFC000
0F03E000
0F01E000
0F00F000
0F00F000
0F007800
0F007800
0F003C00
0F003C00
0F001E00
0F001F00
0F000F80
FFF00FF0
FFF007F0
ENDCHAR

STARTCHAR afii10029
ENCODING 187
SWIDTH 789 0
DWIDTH 30 0
BBX 29 30 0 0
BITMAP
07FFFFF8
07FFFFF8
00F80780
00700780
00700780
00700780
00700780
00700780
00700780
00600780
00600780
00600780
00600780
00600780
00600780
00600780
00600780
00600780
00600780
00C00780
00C00780
00C00780
00C00780
00C00780
71800780
F9800780
FF800780
FF0007C0
FE007FF8
7C007FF8
ENDCHAR

STARTCHAR afii10030
ENCODING 188
SWIDTH 979 0
DWIDTH 37 0
BBX 35 30 1 0
BITMAP
FFC0007FE0
FFC0007FE0
0DC0006E00
0DE000DE00
0DE000DE00
0DE000DE00
0CF0019E00
0CF0019E00
0CF8019E00
0C78031E00
0C78031E00
0C7C031E00
0C3C061E00
0C3C061E00
0C1E061E00
0C1E0C1E00
0C1E0C1E00
0C0F0C1E00
0C0F181E00
0C0F981E00
0C07981E00
0C07B01E00
0C07F01E00
0C03F01E00
0C03E01E00
0C01E01E00
1E01E01E00
3F01C01E00
FFC0C1FFE0
FFC0C1FFE0
ENDCHAR

STARTCHAR afii10031
ENCODING 189
SWIDTH 812 0
DWIDTH 31 0
BBX 29 30 1 0
BITMAP
FFF07FF8
FFF07FF8
0F000780
0F000780
0F000780
0F000780
0F000780
0F000780
0F000780
0F000780
0F000780
0F000780
0F000780
0FFFFF80
0FFFFF80
0F000780
0F000780
0F000780
0F000780
0F000780
0F000780
0F000780
0F000780
0F000780
0F000780
0F000780
0F000780
0F000780
FFF07FF8
FFF07FF8
ENDCHAR

STARTCHAR afii10032
ENCODING 190
SWIDTH 767 0
DWIDTH 29 0
BBX 27 29 1 0
BITMAP
007F8000
01FFF000
07C07C00
0F803E00
1F001F00
1E000F00
3C000780
7C0007C0
7C0007C0
780003C0
F80003E0
F80003E0
F80003E0
F80003E0
F80003E0
F80003E0
F80003E0
F80003E0
780003C0
780003C0
7C0007C0
3C000780
3C000780
1E000F00
0F001F00
0F803E00
03E07800
01FFF000
003F8000
ENDCHAR

STARTCHAR afii10033
ENCODING 191
SWIDTH 823 0
DWIDTH 31 0
BBX 29 30 1 0
BITMAP
FFFFFFF8
FFFFFFF8
1F000780
0F000780
0F000780
0F000780
0F000780
0F000780
0F000780
0F000780
0F000780
0F000780
0F000780
0F000780
0F000780
0F000780
0F000780
0F000780
0F000780
0F000780
0F000780
0F000780
0F000780
0F000780
0F000780
0F000780
0F000780
1F0007C0
FFF07FF8
FFF07FF8
ENDCHAR

STARTCHAR afii10034
ENCODING 192
SWIDTH 662 0
DWIDTH 25 0
BBX 24 30 1 0
BITMAP
FFFFC0
FFFFF0
0F00FC
0F007C
0F003E
0F001F
0F001F
0F001F
0F001F
0F001F
0F001F
0F001E
0F003E
0F007C
0F00F8
0FFFF0
0FFF80
0F0000
0F0000
0F0000
0F0000
0F0000
0F0000
0F0000
0F0000
0F0000
0F0000
0F0000
FFFC00
FFFC00
ENDCHAR

STARTCHAR afii10035
ENCODING 193
SWIDTH 694 0
DWIDTH 26 0
BBX 24 29 1 0
BITMAP
003FC0
01FFF8
03C0FC
0F803C
1F001E
1E000E
3C000E
3C0006
7C0006
780002
780000
F80000
F80000
F80000
F80000
F80000
F80000
F80000
F80000
780003
7C0003
3C0007
3C0006
1E000E
1F000C
0F8038
03E0F0
01FFE0
003F00
ENDCHAR

STARTCHAR afii10036
ENCODING 194
SWIDTH 688 0
DWIDTH 26 0
BBX 24 29 1 0
BITMAP
FFFFFF
FFFFFF
F83C1F
F03C0F
E03C07
E03C07
C03C03
C03C03
C03C03
C03C03
803C01
003C00
003C00
003C00
003C00
003C00
003C00
003C00
003C00
003C00
003C00
003C00
003C00
003C00
003C00
003C00
003C00
03FFC0
03FFC0
ENDCHAR

STARTCHAR afii10037
ENCODING 195
SWIDTH 732 0
DWIDTH 28 0
BBX 28 29 0 0
BITMAP
FFE07FF0
FFE07FF0
3F000780
1F000380
0F000700
0F800600
07800600
07C00C00
03C00C00
03C00C00
01E01800
01E01800
01F03000
00F03000
00F86000
00786000
007CC000
003CC000
003C8000
001F8000
001F0000
000F0000
0C0F0000
1E060000
1F060000
1F0C0000
1F180000
0FF80000
03E00000
ENDCHAR

STARTCHAR afii10038
ENCODING 196
SWIDTH 799 0
DWIDTH 30 0
BBX 28 30 1 0
BITMAP
00FFF000
00FFF000
000F0000
000F0000
00FFF000
07FFFE00
0F0F0F00
1C0F0380
3C0F03C0
780F01E0
780F01E0
F00F00F0
F00F00F0
F00F00F0
F00F00F0
F00F00F0
F00F00F0
F00F00F0
780F01F0
780F01E0
780F01E0
3C0F03C0
1E0F0780
0F8F1F00
03FFFC00
007FE000
000F0000
000F0000
00FFF000
00FFF000
ENDCHAR

STARTCHAR afii10039
ENCODING 197
SWIDTH 729 0
DWIDTH 28 0
BBX 26 29 1 0
BITMAP
FFE1FF80
FFE1FF80
3F003E00
1F003C00
1F003800
0F803000
07C06000
03C0E000
03E0C000
01F18000
00FB8000
00FB0000
007E0000
003E0000
001E0000
001F0000
003F8000
0077C000
0067C000
00C3E000
01C1F000
0380F000
0300F800
07007C00
0E003E00
1E003E00
3F003F00
FFC1FFC0
FFC1FFC0
ENDCHAR

STARTCHAR afii10040
ENCODING 198
SWIDTH 823 0
DWIDTH 31 0
BBX 29 36 1 -6
BITMAP
FFF07FF8
FFF07FF8
0F000780
0F000780
0F000780
0F000780
0F000780
0F000780
0F000780
0F000780
0F000780
0F000780
0F000780
0F000780
0F000780
0F000780
0F000780
0F000780
0F000780
0F000780
0F000780
0F000780
0F000780
0F000780
0F000780
0F000780
0F000780
1F0007C0
FFFFFFF8
FFFFFFF8
000000F8
00000038
00000038
00000018
00000018
00000018
ENDCHAR

STARTCHAR afii10041
ENCODING 199
SWIDTH 761 0
DWIDTH 29 0
BBX 28 30 0 0
BITMAP
FFF0FFF0
FFF0FFF0
0F800F00
0F000F00
0F000F00
0F000F00
0F000F00
0F000F00
0F000F00
0F000F00
0F000F00
0F000F00
0F000F00
0F800F00
07803F00
03E1FF00
03FFCF00
00FF0F00
00000F00
00000F00
00000F00
00000F00
00000F00
00000F00
00000F00
00000F00
00000F00
00000F00
0000FFF0
0000FFF0
ENDCHAR

STARTCHAR afii10042
ENCODING 200
SWIDTH 1073 0
DWIDTH 41 0
BBX 39 30 1 0
BITMAP
FFF3FF8FFE
FFF3FF8FFE
0F807C01E0
0F003C01E0
0F003C01E0
0F003C01E0
0F003C01E0
0F003C01E0
0F003C01E0
0F003C01E0
0F003C01E0
0F003C01E0
0F003C01E0
0F003C01E0
0F003C01E0
0F003C01E0
0F003C01E0
0F003C01E0
0F003C01E0
0F003C01E0
0F003C01E0
0F003C01E0
0F003C01E0
0F003C01E0
0F003C01E0
0F003C01E0
0F003C01E0
1F003C01F0
FFFFFFFFFE
FFFFFFFFFE
ENDCHAR

STARTCHAR afii10043
ENCODING 201
SWIDTH 1073 0
DWIDTH 41 0
BBX 39 36 1 -6
BITMAP
FFF3FF8FFE
FFF3FF8FFE
0F807C01E0
0F003C01E0
0F003C01E0
0F003C01E0
0F003C01E0
0F003C01E0
0F003C01E0
0F003C01E0
0F003C01E0
0F003C01E0
0F003C01E0
0F003C01E0
0F003C01E0
0F003C01E0
0F003C01E0
0F003C01E0
0F003C01E0
0F003C01E0
0F003C01E0
0F003C01E0
0F003C01E0
0F003C01E0
0F003C01E0
0F003C01E0
0F003C01E0
1F003C01F0
FFFFFFFFFE
FFFFFFFFFE
000000003E
000000000E
000000000E
0000000006
0000000006
0000000006
ENDCHAR

STARTCHAR afii10044
ENCODING 202
SWIDTH 879 0
DWIDTH 33 0
BBX 31 30 1 0
BITMAP
FFFFC000
FFFFC000
F83E0000
F03C0000
E03C0000
C03C0000
C03C0000
C03C0000
C03C0000
C03C0000
003C0000
003C0000
003C0000
003C0000
003FFE00
003FFFE0
003C01F0
003C00F8
003C007C
003C003E
003C003E
003C003E
003C003E
003C003E
003C003E
003C007C
003C007C
003C01F8
03FFFFE0
03FFFF00
ENDCHAR

STARTCHAR afii10045
ENCODING 203
SWIDTH 1042 0
DWIDTH 40 0
BBX 38 30 1 0
BITMAP
FFF0000000
FFF0003FFC
0F80003FFC
0F000003C0
0F000003C0
0F000003C0
0F000003C0
0F000003C0
0F000003C0
0F000003C0
0F000003C0
0F000003C0
0F000003C0
0F000003C0
0FFFC003C0
0FFFF803C0
0F007C03C0
0F003E03C0
0F001F03C0
0F000F83C0
0F000F83C0
0F000F83C0
0F000F83C0
0F000F83C0
0F000F83C0
0F001F03C0
0F001F03C0
0F007E03C0
FFFFF83FFC
FFFFC03FFC
ENDCHAR

STARTCHAR afii10046
ENCODING 204
SWIDTH 704 0
DWIDTH 27 0
BBX 25 30 1 0
BITMAP
FFF00000
FFF00000
0F000000
0F000000
0F000000
0F000000
0F000000
0F000000
0F000000
0F000000
0F000000
0F000000
0F000000
0F000000
0FFFC000
0FFFF800
0F007C00
0F003E00
0F001F00
0F000F80
0F000F80
0F000F80
0F000F80
0F000F80
0F000F80
0F001F00
0F001F00
0F007E00
FFFFF800
FFFFC000
ENDCHAR

STARTCHAR afii10047
ENCODING 205
SWIDTH 698 0
DWIDTH 27 0
BBX 24 29 1 0
BITMAP
03FC00
1FFF80
3F03C0
7C00F0
780078
700078
70003C
60003E
60003E
40001E
00001F
00001F
00001F
007FFF
007FFF
00001F
00001F
00001F
00001F
C0001E
C0003E
60003C
60003C
700078
3800F0
1C01F0
0F07C0
07FF80
00FC00
ENDCHAR

STARTCHAR afii10048
ENCODING 206
SWIDTH 1104 0
DWIDTH 42 0
BBX 40 30 1 0
BITMAP
FFF0000000
FFF001FE00
0F0007FF80
0F001F03E0
0F003C00F0
0F00780078
0F00F80078
0F00F0003C
0F01F0003E
0F01E0001E
0F03E0001E
0F03E0001F
0F03E0001F
0F03E0001F
0FFFE0001F
0FFFE0001F
0F03E0001F
0F03E0001F
0F03E0001E
0F03E0001E
0F01E0001E
0F01F0003E
0F01F0003C
0F00F0003C
0F00780078
0F007800F0
0F003E01E0
0F801F03C0
FFF007FF80
FFF000FC00
ENDCHAR

STARTCHAR afii10049
ENCODING 207
SWIDTH 729 0
DWIDTH 28 0
BBX 26 29 1 0
BITMAP
007FFFC0
01FFFFC0
07C03C00
0F803C00
0F003C00
0F003C00
1F003C00
1F003C00
1F003C00
1F003C00
0F003C00
0F803C00
07803C00
03E03C00
00FFFC00
003FFC00
00F83C00
00F03C00
01E03C00
01E03C00
03C03C00
07C03C00
07803C00
0F803C00
0F003C00
1F003C00
3E003C00
FE03FFC0
FC03FFC0
ENDCHAR

STARTCHAR afii10065
ENCODING 208
SWIDTH 563 0
DWIDTH 21 0
BBX 19 21 1 0
BITMAP
03F000
0FFC00
3C1E00
3C0F00
7C0F00
780F00
380F00
000F00
000F00
01FF00
0FCF00
1E0F00
780F00
700F00
F00F00
F00F00
F01F00
F03F00
7877A0
3FC3E0
1F81E0
ENDCHAR

STARTCHAR afii10066
ENCODING 209
SWIDTH 567 0
DWIDTH 22 0
BBX 19 29 1 0
BITMAP
0000E0
00FFC0
07FF80
0FFF00
1F8000
380000
300000
600000
61F800
47FE00
CE0F00
DC0780
D803C0
D803C0
D801C0
F001E0
F001E0
F001E0
F001E0
F001E0
F001E0
7001E0
7801C0
7803C0
380380
1C0780
1E0F00
07FC00
01F000
ENDCHAR

STARTCHAR afii10067
ENCODING 210
SWIDTH 559 0
DWIDTH 21 0
BBX 19 21 1 0
BITMAP
FFFC00
FFFF00
1E0780
1E03C0
1E03C0
1E03C0
1E03C0
1E0380
1E0700
1FF800
1FFF00
1E07C0
1E03C0
1E01E0
1E01E0
1E01E0
1E01E0
1E03C0
1E07C0
FFFF00
FFFC00
ENDCHAR

STARTCHAR afii10068
ENCODING 211
SWIDTH 504 0
DWIDTH 19 0
BBX 18 21 1 0
BITMAP
FFFFC0
FFFFC0
1E03C0
1E01C0
1E01C0
1E00C0
1E00C0
1E0000
1E0000
1E0000
1E0000
1E0000
1E0000
1E0000
1E0000
1E0000
1E0000
1E0000
1E0000
FFC000
FFC000
ENDCHAR

STARTCHAR afii10069
ENCODING 212
SWIDTH 616 0
DWIDTH 23 0
BBX 22 26 1 -5
BITMAP
0FFFFC
0FFFFC
03C1E0
0381E0
0181E0
0181E0
0181E0
0101E0
0101E0
0301E0
0301E0
0301E0
0301E0
0601E0
0601E0
0601E0
0C01E0
1801E0
3001E0
FFFFFC
FFFFFC
E0001C
C0000C
C0000C
80000C
80000C
ENDCHAR

STARTCHAR afii10070
ENCODING 213
SWIDTH 513 0
DWIDTH 19 0
BBX 17 21 1 0
BITMAP
03F000
0FF800
1E1E00
3C0E00
780F00
780700
700780
F00780
F00780
FFFF80
FFFF80
F00000
F00000
F00000
700000
780180
780300
3C0700
1E1E00
0FF800
03E000
ENDCHAR

STARTCHAR afii10072
ENCODING 214
SWIDTH 844 0
DWIDTH 32 0
BBX 32 21 0 0
BITMAP
3C1FF83C
7E1FF87E
7E03C07E
3B03C0DC
0103C080
0183C180
0183C180
00C3C100
00C3C300
003FFC00
00FFFF00
01E3C780
03C3C3C0
03C3C3C0
0783C1E0
0783C1E0
0F03C0F0
1F03C0F8
1E03C078
FE1FF87F
FC1FF83F
ENDCHAR

STARTCHAR afii10073
ENCODING 215
SWIDTH 479 0
DWIDTH 18 0
BBX 16 21 1 0
BITMAP
07E0
3FF8
383C
301E
700E
600E
600E
001C
003C
07E0
07F8
003E
001E
200F
F00F
F00F
F00F
F01E
703C
3FF8
07C0
ENDCHAR

STARTCHAR afii10074
ENCODING 216
SWIDTH 646 0
DWIDTH 25 0
BBX 23 21 1 0
BITMAP
FFC7FE
FFC7FE
1E00F0
1E00F0
1E00F0
1E01F0
1E0370
1E06F0
1E0CF0
1E1CF0
1E38F0
1E30F0
1E60F0
1EC0F0
1E80F0
1F00F0
1F00F0
1E00F0
1E00F0
FFC7FE
FFC7FE
ENDCHAR

STARTCHAR afii10075
ENCODING 217
SWIDTH 646 0
DWIDTH 25 0
BBX 23 29 1 0
BITMAP
010080
0381C0
0381C0
0381C0
01C380
00FF00
000000
000000
FFC7FE
FFC7FE
1E00F0
1E00F0
1E00F0
1E01F0
1E0370
1E06F0
1E0CF0
1E1CF0
1E38F0
1E30F0
1E60F0
1EC0F0
1E80F0
1F00F0
1F00F0
1E00F0
1E00F0
FFC7FE
FFC7FE
ENDCHAR

STARTCHAR afii10076
ENCODING 218
SWIDTH 602 0
DWIDTH 23 0
BBX 22 21 1 0
BITMAP
FFC0F0
FFC1F8
1E01F8
1E0330
1E0300
1E0200
1E0600
1E0600
1E0C00
1FF800
1FFC00
1E3E00
1E1E00
1E0F00
1E0780
1E0780
1E03C0
1E03E0
1E01E0
FFC1FC
FFC0FC
ENDCHAR

STARTCHAR afii10077
ENCODING 219
SWIDTH 639 0
DWIDTH 24 0
BBX 23 21 1 0
BITMAP
0FFFFE
0FFFFE
03C0F0
0180F0
0180F0
0180F0
0180F0
0180F0
0180F0
0180F0
0180F0
0180F0
0100F0
0100F0
0300F0
0300F0
0300F0
E200F0
F600F0
FC07FE
7807FE
ENDCHAR

STARTCHAR afii10078
ENCODING 220
SWIDTH 784 0
DWIDTH 30 0
BBX 28 21 1 0
BITMAP
FF000FF0
FF800FF0
1B801B80
1B801780
1BC03780
1BC03780
19C02780
19E06780
19E04780
18F0C780
18F0C780
18F08780
18798780
18798780
183B0780
183F0780
183E0780
181E0780
181E0780
FF1C3FF0
FF0C3FF0
ENDCHAR

STARTCHAR afii10079
ENCODING 221
SWIDTH 646 0
DWIDTH 25 0
BBX 23 21 1 0
BITMAP
FFC7FE
FFC7FE
1E00F0
1E00F0
1E00F0
1E00F0
1E00F0
1E00F0
1E00F0
1FFFF0
1FFFF0
1E00F0
1E00F0
1E00F0
1E00F0
1E00F0
1E00F0
1E00F0
1E00F0
FFC7FE
FFC7FE
ENDCHAR

STARTCHAR afii10080
ENCODING 222
SWIDTH 548 0
DWIDTH 21 0
BBX 19 21 1 0
BITMAP
01F000
0FFE00
1E0F00
3C0780
3803C0
7803C0
7001C0
F001E0
F001E0
F001E0
F001E0
F001E0
F001E0
F001E0
7801C0
7803C0
3803C0
3C0780
1E0F00
07FE00
01F000
ENDCHAR

STARTCHAR afii10081
ENCODING 223
SWIDTH 646 0
DWIDTH 25 0
BBX 23 21 1 0
BITMAP
FFFFFE
FFFFFE
1E00F0
1E00F0
1E00F0
1E00F0
1E00F0
1E00F0
1E00F0
1E00F0
1E00F0
1E00F0
1E00F0
1E00F0
1E00F0
1E00F0
1E00F0
1E00F0
1E00F0
FFC7FE
FFC7FE
ENDCHAR

STARTCHAR afii10082
ENCODING 224
SWIDTH 594 0
DWIDTH 23 0
BBX 20 28 1 -7
BITMAP
FC3E00
FC7F00
1CC3C0
1E83C0
1F01E0
1E01E0
1E00F0
1E00F0
1E00F0
1E00F0
1E00F0
1E00F0
1E00F0
1E00F0
1E00F0
1E01E0
1F01E0
1F83C0
1EC7C0
1E7F80
1E3E00
1E0000
1E0000
1E0000
1E0000
1E0000
FFE000
FFE000
ENDCHAR

STARTCHAR afii10083
ENCODING 225
SWIDTH 500 0
DWIDTH 19 0
BBX 17 21 1 0
BITMAP
03F000
0FFC00
1E1E00
3C0F00
380F00
780F00
700F00
F00600
F00000
F00000
F00000
F00000
F00000
F00000
700000
780380
780300
3C0600
1E1C00
0FF800
03E000
ENDCHAR

STARTCHAR afii10084
ENCODING 226
SWIDTH 552 0
DWIDTH 21 0
BBX 20 21 0 0
BITMAP
7FFFF0
FFFFF0
F0F0F0
E0F070
E0F070
C0F030
C0F030
00F000
00F000
00F000
00F000
00F000
00F000
00F000
00F000
00F000
00F000
00F000
00F000
07FE00
07FE00
ENDCHAR

STARTCHAR afii10085
ENCODING 227
SWIDTH 573 0
DWIDTH 22 0
BBX 21 28 0 -7
BITMAP
FFC3F8
FFC3F8
1E00E0
1E00E0
0E00C0
0F00C0
070080
078180
078180
03C300
03C300
01C300
01E600
01E600
00F400
00FC00
007C00
007800
007800
003800
003000
003000
002000
386000
3CC000
3CC000
3F8000
1F0000
ENDCHAR

STARTCHAR afii10086
ENCODING 228
SWIDTH 746 0
DWIDTH 28 0
BBX 27 35 1 -6
BITMAP
007FC000
007FC000
001F0000
000E0000
000E0000
000E0000
000E0000
000E0000
078E3C00
1FEEFF00
3C76C780
381F8380
781F03C0
700E01C0
700E01C0
F00E01E0
F00E01E0
F00E01E0
F00E01E0
F00E01E0
F00E01E0
F00E01E0
700E01C0
700E01C0
781F03C0
383F8380
3C6EC780
1FEEFF00
078E3C00
000E0000
000E0000
000E0000
001F0000
007FC000
007FC000
ENDCHAR

STARTCHAR afii10087
ENCODING 229
SWIDTH 583 0
DWIDTH 22 0
BBX 21 21 1 0
BITMAP
FF8FF0
FF8FF0
3E0380
1E0300
0F0300
0F0600
078C00
03D800
01F000
01F000
00F000
00F800
01BC00
033C00
031E00
060F00
0C0F80
180780
3803C0
FF1FF8
FF1FF8
ENDCHAR

STARTCHAR afii10088
ENCODING 230
SWIDTH 646 0
DWIDTH 25 0
BBX 23 26 1 -5
BITMAP
FFC7FE
FFC7FE
1E00F0
1E00F0
1E00F0
1E00F0
1E00F0
1E00F0
1E00F0
1E00F0
1E00F0
1E00F0
1E00F0
1E00F0
1E00F0
1E00F0
1E00F0
1E00F0
1E00F0
FFFFFE
FFFFFE
00000E
000006
000006
000006
000006
ENDCHAR

STARTCHAR afii10089
ENCODING 231
SWIDTH 625 0
DWIDTH 24 0
BBX 22 21 1 0
BITMAP
FFC7FC
FFC7FC
1E01E0
1E01E0
1E01E0
1E01E0
1E01E0
1E01E0
1E01E0
1E03E0
0F0EE0
0FFDE0
03F1E0
0001E0
0001E0
0001E0
0001E0
0001E0
0001E0
000FFC
000FFC
ENDCHAR

STARTCHAR afii10090
ENCODING 232
SWIDTH 927 0
DWIDTH 35 0
BBX 34 21 1 0
BITMAP
FFCFFCFFC0
FFCFFCFFC0
1E01E01E00
1E01E01E00
1E01E01E00
1E01E01E00
1E01E01E00
1E01E01E00
1E01E01E00
1E01E01E00
1E01E01E00
1E01E01E00
1E01E01E00
1E01E01E00
1E01E01E00
1E01E01E00
1E01E01E00
1E01E01E00
1E01E01E00
FFFFFFFFC0
FFFFFFFFC0
ENDCHAR

STARTCHAR afii10091
ENCODING 233
SWIDTH 927 0
DWIDTH 35 0
BBX 34 26 1 -5
BITMAP
FFCFFCFFC0
FFCFFCFFC0
1E01E01E00
1E01E01E00
1E01E01E00
1E01E01E00
1E01E01E00
1E01E01E00
1E01E01E00
1E01E01E00
1E01E01E00
1E01E01E00
1E01E01E00
1E01E01E00
1E01E01E00
1E01E01E00
1E01E01E00
1E01E01E00
1E01E01E00
FFFFFFFFC0
FFFFFFFFC0
00000001C0
00000000C0
00000000C0
00000000C0
00000000C0
ENDCHAR

STARTCHAR afii10092
ENCODING 234
SWIDTH 695 0
DWIDTH 26 0
BBX 24 21 1 0
BITMAP
7FFE00
7FFE00
F0F000
E0F000
E0F000
C0F000
C0F000
00F000
00F000
00FFF0
00FFFC
00F03E
00F01F
00F00F
00F00F
00F00F
00F00F
00F01E
00F03E
07FFFC
07FFE0
ENDCHAR

STARTCHAR afii10093
ENCODING 235
SWIDTH 833 0
DWIDTH 32 0
BBX 30 21 1 0
BITMAP
FFC00FFC
FFC00FFC
1E0001E0
1E0001E0
1E0001E0
1E0001E0
1E0001E0
1E0001E0
1E0001E0
1FFE01E0
1FFF81E0
1E07C1E0
1E03E1E0
1E01E1E0
1E01E1E0
1E01E1E0
1E01E1E0
1E03E1E0
1E07C1E0
FFFF8FFC
FFFE0FFC
ENDCHAR

STARTCHAR afii10094
ENCODING 236
SWIDTH 565 0
DWIDTH 21 0
BBX 19 21 1 0
BITMAP
FFC000
FFC000
1E0000
1E0000
1E0000
1E0000
1E0000
1E0000
1E0000
1FFE00
1FFF80
1E07C0
1E03E0
1E01E0
1E01E0
1E01E0
1E01E0
1E03E0
1E07C0
FFFF80
FFFC00
ENDCHAR

STARTCHAR afii10095
ENCODING 237
SWIDTH 490 0
DWIDTH 19 0
BBX 17 21 1 0
BITMAP
0FE000
3FF800
783C00
701E00
600F00
600F00
600700
000780
000780
03FF80
03FF80
000780
000780
400780
F00780
F00F00
F00F00
F01E00
783C00
3FF800
0FC000
ENDCHAR

STARTCHAR afii10096
ENCODING 238
SWIDTH 833 0
DWIDTH 32 0
BBX 30 21 1 0
BITMAP
FFC03F00
FFC1FFC0
1E03C1E0
1E0780F0
1E070078
1E0F0078
1E0F003C
1E0E003C
1E1E003C
1FFE003C
1FFE003C
1E1E003C
1E1E003C
1E0F003C
1E0F0038
1E0F0078
1E078078
1E0780F0
1E03C1E0
FFC0FFC0
FFC03F00
ENDCHAR

STARTCHAR afii10097
ENCODING 239
SWIDTH 577 0
DWIDTH 22 0
BBX 21 20 0 0
BITMAP
01FFF8
07FFF8
0F03C0
1E03C0
1E03C0
1E03C0
1E03C0
1F03C0
0F03C0
02FFC0
01FFC0
03C3C0
0783C0
0783C0
0F03C0
0F03C0
1E03C0
1E03C0
FC1FF8
FC1FF8
ENDCHAR

STARTCHAR afii61352
ENCODING 240
SWIDTH 1053 0
DWIDTH 40 0
BBX 38 29 0 0
BITMAP
3FC000F000
3FC001F800
07E001FC00
03E003FC00
03F0033800
03F0030000
03F8030000
037C030000
037C0307E0
033E030E70
033E031C38
031F03181C
031F03381C
030F83381C
0307C3381C
0307C3381C
0303E3381C
0303E3381C
0301F31818
0301F31C38
0300FB0E70
03007F07E0
03007F0000
03003F0000
73003F0000
FF001F0000
FF000F0FF0
7E000F0FF0
3C00070000
ENDCHAR

STARTCHAR afii10071
ENCODING 241
SWIDTH 513 0
DWIDTH 19 0
BBX 17 27 1 0
BITMAP
0C0600
1E0F00
1E0F00
0C0600
000000
000000
03F000
0FF800
1E1E00
3C0E00
780F00
780700
700780
F00780
F00780
FFFF80
FFFF80
F00000
F00000
F00000
700000
780180
780300
3C0700
1E1E00
0FF800
03E000
ENDCHAR

STARTCHAR afii10099
ENCODING 242
SWIDTH 574 0
DWIDTH 22 0
BBX 20 35 1 -6
BITMAP
FE0000
7E0000
1E0000
1E0000
FFFF00
FFFF00
1E0000
1E0000
1E3E00
1E7F80
1EFFC0
1EC3C0
1F03E0
1F01E0
1E01E0
1E00F0
1E00F0
1E00F0
1E00F0
1E00F0
1E00F0
1E00F0
1E00F0
1E00F0
1E00F0
1E00E0
1E00E0
FFC1E0
FFC1C0
0003C0
000380
000780
000F00
003E00
00F800
ENDCHAR

STARTCHAR afii10100
ENCODING 243
SWIDTH 504 0
DWIDTH 19 0
BBX 18 29 1 0
BITMAP
000800
003C00
007C00
01F000
03C000
060000
000000
000000
FFFFC0
FFFFC0
1E03C0
1E01C0
1E01C0
1E00C0
1E00C0
1E0000
1E0000
1E0000
1E0000
1E0000
1E0000
1E0000
1E0000
1E0000
1E0000
1E0000
1E0000
FFC000
FFC000
ENDCHAR

STARTCHAR afii10101
ENCODING 244
SWIDTH 500 0
DWIDTH 19 0
BBX 17 21 1 0
BITMAP
01F800
0FFE00
1E0F00
3C0F00
780F80
780F80
780F00
F00200
F00000
FFE000
FFE000
F00000
F00000
F00000
700000
780180
780380
3C0700
1E1E00
0FFC00
03F000
ENDCHAR

STARTCHAR afii10102
ENCODING 245
SWIDTH 458 0
DWIDTH 17 0
BBX 15 21 1 0
BITMAP
0FC0
3FF8
7078
601C
E01C
E00C
E00C
F800
7E00
7FE0
1FF8
07FC
00FE
001E
C00E
C00E
C00E
E00C
F83C
FFF0
1FC0
ENDCHAR

STARTCHAR afii10103
ENCODING 246
SWIDTH 354 0
DWIDTH 13 0
BBX 12 28 1 0
BITMAP
0E00
1F00
1F00
1F00
0E00
0000
0000
FF00
FF00
1F00
0F00
0F00
0F00
0F00
0F00
0F00
0F00
0F00
0F00
0F00
0F00
0F00
0F00
0F00
0F00
0F00
FFF0
FFF0
ENDCHAR

STARTCHAR afii10104
ENCODING 247
SWIDTH 354 0
DWIDTH 13 0
BBX 13 27 0 0
BITMAP
E0E0
F0F0
F0F0
6060
0000
0000
7F80
7F80
0F80
0780
0780
0780
0780
0780
0780
0780
0780
0780
0780
0780
0780
0780
0780
0780
0780
7FF8
7FF8
ENDCHAR

STARTCHAR afii10105
ENCODING 248
SWIDTH 323 0
DWIDTH 12 0
BBX 11 35 -2 -7
BITMAP
01C0
03E0
03E0
03E0
01C0
0000
0000
1FE0
1FE0
03E0
01E0
01E0
01E0
01E0
01E0
01E0
01E0
01E0
01E0
01E0
01E0
01E0
01E0
01E0
01E0
01E0
01E0
01E0
01E0
01C0
61C0
F1C0
F980
FF00
3C00
ENDCHAR

STARTCHAR afii10106
ENCODING 249
SWIDTH 887 0
DWIDTH 34 0
BBX 32 21 0 0
BITMAP
0FFFFE00
0FFFFE00
03C0F000
01C0F000
0180F000
0180F000
0180F000
0180F000
0180F000
0180FFF0
0180FFFC
0180F03E
0180F01F
0180F00F
0100F00F
0300F00F
0300F00F
E300F01F
F600F03E
FE07FFFC
7807FFF0
ENDCHAR

STARTCHAR afii10107
ENCODING 250
SWIDTH 888 0
DWIDTH 34 0
BBX 32 21 1 0
BITMAP
FFC7FE00
FFC7FE00
1E00F000
1E00F000
1E00F000
1E00F000
1E00F000
1E00F000
1E00F000
1FFFFFF0
1FFFFFFC
1E00F03E
1E00F01F
1E00F00F
1E00F00F
1E00F00F
1E00F00F
1E00F01E
1E00F03E
FFC7FFFC
FFC7FFE0
ENDCHAR

STARTCHAR afii10108
ENCODING 251
SWIDTH 635 0
DWIDTH 24 0
BBX 23 29 1 0
BITMAP
FE0000
FE0000
1E0000
1E0000
FFFF00
FFFF00
1E0000
1E0000
1E0F80
1E3FC0
1E7FE0
1EC1E0
1F80E0
1F00F0
1E00F0
1E00F0
1E00F0
1E00F0
1E00F0
1E00F0
1E00F0
1E00F0
1E00F0
1E00F0
1E00F0
1E00F0
1E00F0
FFC7FE
FFC7FE
ENDCHAR

STARTCHAR afii10109
ENCODING 252
SWIDTH 602 0
DWIDTH 23 0
BBX 22 28 1 0
BITMAP
000780
000F80
001F00
007C00
00E000
000000
000000
FFC0F0
FFC1F8
1E01F8
1E0330
1E0300
1E0200
1E0600
1E0600
1E0C00
1FF800
1FFC00
1E3E00
1E1E00
1E0F00
1E0780
1E0780
1E03C0
1E03E0
1E01E0
FFC1FC
FFC0FC
ENDCHAR

STARTCHAR section
ENCODING 253
SWIDTH 490 0
DWIDTH 19 0
BBX 15 36 2 -7
BITMAP
07E0
1FF8
3878
303C
703C
703C
7038
7800
3C00
3E00
0F80
1FC0
3BE0
73F0
60F8
E07C
E03E
E01E
F00E
780E
7C0E
3E0C
1F9C
0FD8
07E0
03F0
00F8
0078
003C
381C
781C
781C
7818
3C38
3FF0
0FC0
ENDCHAR

STARTCHAR afii10110
ENCODING 254
SWIDTH 573 0
DWIDTH 22 0
BBX 21 36 1 -7
BITMAP
020100
070380
070380
070380
038700
01FE00
000000
000000
FF87F8
FF87F8
3C00E0
3C00C0
1E00C0
1E0080
0E0180
0F0180
070300
078300
078200
03C600
03C600
01CC00
01EC00
00E800
00F800
00F800
007000
007000
003000
006000
006000
70C000
78C000
798000
7F0000
3E0000
ENDCHAR

STARTCHAR afii10193
ENCODING 255
SWIDTH 646 0
DWIDTH 25 0
BBX 23 26 1 -5
BITMAP
FFC7FE
FFC7FE
1E00F0
1E00F0
1E00F0
1E00F0
1E00F0
1E00F0
1E00F0
1E00F0
1E00F0
1E00F0
1E00F0
1E00F0
1E00F0
1E00F0
1E00F0
1E00F0
1E00F0
FFFFFE
FFFFFE
007C00
003800
003800
001000
001000
ENDCHAR
ENDFONT
